<?xml version="1.0" standalone="no"?>
<!DOCTYPE svg PUBLIC "-//W3C//DTD SVG 20010904//EN"
 "http://www.w3.org/TR/2001/REC-SVG-20010904/DTD/svg10.dtd">
<svg version="1.0" xmlns="http://www.w3.org/2000/svg"
 width="512.000000pt" height="512.000000pt" viewBox="0 0 512.000000 512.000000"
 preserveAspectRatio="xMidYMid meet">
<metadata>
Created by potrace 1.11, written by Peter Selinger 2001-2013
</metadata>
<g transform="translate(0.000000,512.000000) scale(0.100000,-0.100000)"
fill="#000000" stroke="none">
<path d="M1420 4570 c0 -6 22 -54 49 -108 36 -73 59 -104 87 -125 24 -17 32
-27 22 -27 -9 0 -20 5 -24 11 -4 7 -10 7 -16 1 -11 -11 22 -103 60 -162 16
-25 56 -75 89 -111 58 -64 80 -108 97 -194 l6 -30 -17 25 c-26 38 -131 137
-177 169 -23 16 -65 41 -95 55 l-54 28 5 -32 5 -31 -39 38 c-35 34 -43 37 -88
36 -59 -3 -182 -43 -262 -85 -58 -31 -158 -126 -158 -150 0 -8 8 -14 18 -15
25 -2 182 -53 217 -70 17 -9 42 -27 58 -41 21 -21 37 -26 70 -25 l42 2 -25
-19 -25 -19 40 -17 c22 -10 74 -27 115 -40 41 -12 76 -26 78 -32 1 -5 -24 -11
-60 -14 -62 -4 -178 -47 -178 -66 0 -5 12 -14 27 -21 27 -12 26 -13 -37 -34
-130 -44 -226 -121 -274 -220 -25 -50 -46 -137 -34 -137 2 0 37 11 76 24 40
14 118 34 174 46 56 11 106 24 111 27 6 3 7 1 3 -5 -11 -18 15 -14 58 9 l39
20 -6 -20 c-6 -25 1 -25 68 -7 59 15 82 26 147 70 44 29 75 77 63 96 -3 5 4 6
16 3 12 -4 18 -11 15 -20 -3 -8 -6 -21 -6 -29 0 -9 -4 -12 -10 -9 -5 3 -7 0
-4 -9 3 -8 2 -20 -2 -27 -4 -7 -9 -33 -11 -58 -2 -25 -7 -48 -11 -51 -4 -3 -8
-23 -8 -45 -3 -82 -8 -120 -18 -127 -7 -5 -6 -8 2 -8 7 0 11 -3 8 -8 -4 -7
-19 -153 -18 -184 0 -12 -6 -15 -20 -13 -11 3 -18 2 -14 -2 3 -4 -2 -16 -11
-27 -13 -15 -14 -17 -2 -8 12 9 19 9 32 -1 23 -16 9 -35 -33 -43 -25 -6 -31
-4 -25 6 6 10 -4 11 -45 6 -28 -3 -61 -11 -72 -17 -11 -6 -21 -9 -23 -7 -6 5
54 68 65 68 7 0 8 6 0 19 -8 16 -6 23 10 34 11 7 17 16 14 20 -3 3 2 17 12 32
13 20 19 23 26 13 6 -8 7 -5 3 11 -6 20 -4 23 9 18 11 -4 15 -3 10 4 -3 6 3
19 15 30 12 11 21 24 21 29 0 4 3 15 6 24 3 9 1 16 -6 16 -6 0 -8 -5 -5 -10 4
-7 -8 -8 -37 -4 -131 19 -248 -15 -248 -73 0 -15 -2 -16 -10 -3 -12 19 -13 17
-49 -60 -17 -36 -31 -56 -31 -44 0 28 28 109 57 163 13 24 21 46 18 49 -3 3
-23 0 -45 -7 -48 -14 -110 -66 -110 -92 0 -10 -6 -22 -14 -26 -25 -15 -35 -50
-31 -111 2 -34 7 -67 11 -73 5 -9 0 -10 -17 -5 -113 32 -188 30 -213 -6 -9
-12 -18 -19 -22 -15 -7 7 -82 -42 -102 -66 -11 -12 -5 -19 30 -40 24 -14 58
-40 75 -57 30 -29 36 -31 75 -25 24 4 60 14 81 22 43 17 61 11 25 -8 -34 -18
-47 -40 -48 -76 0 -17 -5 -35 -11 -39 -24 -15 7 -179 34 -179 5 0 20 29 35 65
35 85 73 151 84 144 4 -3 3 -14 -2 -24 -6 -11 -14 -40 -19 -66 -7 -35 -6 -47
5 -51 10 -3 13 -24 13 -73 -1 -75 16 -122 57 -161 30 -28 37 -21 54 56 7 33
21 74 30 90 9 17 16 38 14 48 -1 9 4 17 12 17 8 0 14 1 14 3 10 89 11 145 1
151 -6 4 -11 22 -11 39 l0 32 61 -65 c100 -108 109 -118 109 -127 0 -5 9 -15
20 -23 15 -11 17 -17 7 -29 -9 -12 -9 -13 1 -7 14 8 25 -2 68 -64 30 -42 31
-47 17 -70 -14 -23 -14 -24 1 -6 12 15 18 17 30 7 14 -11 13 -16 0 -39 -12
-20 -12 -23 -1 -9 15 18 32 24 22 7 -3 -5 -1 -10 4 -10 6 0 11 -6 11 -14 0 -8
7 -17 16 -20 9 -4 14 -10 10 -13 -11 -12 -56 -14 -56 -4 0 6 8 8 18 5 14 -5
15 -4 2 5 -11 8 -19 6 -30 -10 -13 -16 -18 -17 -29 -7 -11 11 -12 10 -6 -1 6
-11 1 -13 -23 -9 -17 2 -29 1 -27 -3 3 -4 -11 -9 -30 -11 -20 -2 -35 0 -35 7
0 6 -3 6 -8 -1 -6 -9 -147 -41 -312 -70 -14 -3 -33 -7 -42 -10 -10 -3 -28 -7
-40 -10 -253 -47 -878 -240 -878 -270 0 -11 25 -73 80 -199 9 -22 23 -55 30
-73 7 -17 18 -32 25 -32 6 0 77 23 156 50 219 77 657 194 804 215 28 4 59 10
70 12 72 17 116 24 156 27 26 2 51 6 56 9 5 3 21 4 36 3 14 -2 24 0 22 4 -3 5
13 10 34 12 22 2 37 -1 34 -6 -4 -5 0 -6 8 0 8 4 23 9 34 10 11 0 35 4 53 8
21 5 32 4 32 -3 0 -6 5 -11 11 -11 5 0 7 5 4 10 -6 10 0 11 60 14 17 1 35 5
42 9 6 4 14 3 18 -3 3 -5 11 -10 16 -10 6 0 8 4 5 9 -7 10 20 9 30 -2 11 -11
26 -8 19 3 -3 6 -1 10 4 10 6 0 11 -5 11 -11 0 -6 9 -9 19 -6 14 3 18 1 14
-10 -5 -13 -2 -13 15 -4 15 8 22 8 22 1 0 -5 -7 -10 -15 -10 -8 0 -15 -5 -15
-11 0 -5 4 -8 8 -5 5 3 9 -1 9 -9 0 -13 -10 -19 -19 -13 -2 1 -13 -4 -25 -10
-16 -9 -24 -9 -29 -1 -4 8 -9 8 -13 1 -4 -6 -18 -13 -31 -16 -155 -35 -360
-90 -545 -146 -176 -54 -444 -147 -458 -160 -6 -5 104 -299 120 -319 1 -2 53
13 115 33 62 21 119 39 128 41 8 2 62 15 120 30 105 27 224 50 310 61 255 33
397 38 392 16 -1 -8 2 -11 8 -7 6 3 7 11 4 17 -5 7 0 9 14 6 12 -3 23 -1 26 6
3 8 5 7 5 -1 1 -9 8 -10 26 -3 14 5 25 6 25 2 0 -4 27 -6 60 -5 45 2 59 -1 53
-10 -5 -9 -3 -9 8 -1 15 12 58 12 77 0 7 -4 12 -2 12 4 0 6 5 8 12 4 7 -4 29
-7 50 -5 27 1 38 -2 38 -13 0 -9 -10 -13 -30 -12 -16 1 -31 -2 -33 -7 -1 -5
-21 -9 -44 -10 -22 -1 -39 -5 -37 -9 3 -4 -4 -7 -13 -7 -37 -2 -69 -8 -81 -15
-14 -8 -64 -25 -99 -32 -29 -6 -234 -76 -298 -102 -78 -31 -223 -101 -229
-110 -2 -4 15 -39 38 -77 23 -39 57 -97 75 -130 51 -92 50 -92 114 -61 228
107 543 200 802 236 44 6 91 13 105 16 161 28 678 25 841 -6 27 -5 72 -12 101
-15 29 -3 67 -10 84 -14 17 -5 36 -6 41 -2 6 3 18 42 28 86 10 48 33 109 57
153 22 40 38 75 35 78 -8 8 -260 120 -300 133 -20 7 -35 16 -32 21 3 4 -5 6
-17 2 -16 -4 -19 -2 -13 8 5 8 4 11 -2 7 -10 -6 -117 24 -129 36 -4 4 -16 7
-26 7 -11 0 -17 4 -14 9 4 5 -4 7 -16 3 -16 -4 -19 -2 -13 8 5 8 4 11 -2 7
-17 -11 -73 4 -73 19 0 8 -5 14 -11 14 -5 0 -7 -5 -3 -11 4 -8 -1 -9 -17 -4
-13 4 -25 11 -27 15 -2 4 -12 6 -22 3 -12 -3 -20 0 -20 6 0 7 -4 9 -10 6 -5
-3 -10 0 -10 8 0 9 11 14 30 15 17 0 30 -4 30 -9 0 -5 5 -9 11 -9 5 0 7 5 4
10 -4 6 14 10 47 11 29 1 74 3 100 4 28 1 45 -2 42 -7 -4 -7 0 -7 12 -1 22 11
64 10 84 -2 8 -5 11 -4 7 2 -6 10 229 10 378 -1 44 -3 114 -8 155 -11 88 -6
175 -15 210 -20 14 -2 45 -6 70 -9 81 -10 145 -18 165 -22 10 -2 35 -6 55 -9
19 -3 69 -12 110 -19 41 -7 78 -10 81 -7 3 3 11 39 18 80 6 41 25 108 42 150
33 84 34 103 2 107 -12 2 -66 21 -120 43 -174 69 -625 202 -741 219 -28 4 -31
6 -20 21 11 14 11 14 -3 3 -24 -18 -102 -5 -94 16 4 12 3 13 -9 3 -17 -14 -40
-5 -30 11 4 7 2 8 -5 4 -6 -4 -9 -11 -6 -16 3 -4 -4 -6 -15 -3 -11 3 -17 10
-13 17 4 7 1 6 -9 -1 -8 -7 -18 -10 -21 -7 -3 3 -23 8 -43 10 -21 2 -41 8 -44
15 -6 8 -9 7 -14 -2 -3 -8 -4 -5 -3 6 2 11 8 19 15 18 7 -2 9 4 5 14 -4 11 -3
14 5 9 7 -4 12 -2 12 3 0 6 -6 11 -12 11 -9 0 -8 4 2 10 11 7 6 8 -17 5 -18
-2 -33 -1 -33 1 0 14 22 44 32 44 7 0 6 -5 -2 -15 -9 -10 -9 -15 -1 -15 6 0
11 4 11 9 0 5 9 13 20 16 11 4 18 10 15 15 -3 5 3 11 12 14 15 4 14 4 -2 3
-11 -1 -26 2 -32 6 -16 10 -17 37 -2 37 5 0 8 -4 4 -9 -9 -15 15 -25 28 -12 9
9 7 10 -7 5 -13 -5 -17 -4 -12 4 3 6 0 17 -7 24 -12 11 -12 14 0 23 14 11 8
49 -7 40 -4 -3 -14 3 -21 12 -12 14 -11 15 9 9 21 -7 28 1 23 27 -1 5 7 6 18
2 14 -4 23 0 31 16 7 12 8 19 3 16 -4 -2 -19 7 -33 20 -23 22 -23 24 -5 21 11
-2 25 -9 31 -17 9 -11 15 -11 30 -2 17 11 16 11 -6 5 -14 -3 -22 -3 -18 1 4 4
-3 16 -15 27 -18 16 -19 19 -4 14 11 -3 16 -2 12 4 -3 6 -1 10 4 10 6 0 11 5
11 10 0 6 -10 4 -23 -4 -14 -10 -27 -12 -36 -7 -8 5 -20 7 -27 4 -18 -7 -11
27 8 38 11 6 20 3 29 -8 12 -14 11 -15 -11 -9 -21 6 -22 5 -8 -4 13 -8 23 -8
38 0 25 13 26 21 3 14 -14 -4 -13 -1 4 14 20 18 21 21 6 26 -9 4 -21 2 -27 -4
-21 -21 -29 -9 -8 13 12 13 19 26 16 30 -4 4 -1 15 7 24 13 16 12 17 -4 4 -10
-8 -16 -20 -13 -27 3 -8 -3 -12 -15 -11 -19 1 -25 12 -11 20 4 2 1 2 -6 0 -8
-1 -12 3 -9 9 2 7 11 12 20 10 27 -5 30 18 6 44 -12 13 -19 27 -14 31 4 5 10
2 12 -4 3 -7 9 -13 15 -13 6 0 5 6 -2 15 -7 9 -19 14 -26 11 -8 -3 -18 3 -24
12 -9 16 -11 16 -23 0 -12 -15 -14 -15 -25 3 -15 23 -16 37 -1 22 6 -6 20 -8
31 -5 15 4 17 7 6 13 -10 7 -9 9 5 9 9 0 17 4 17 10 0 5 -7 7 -15 4 -10 -4
-13 -2 -10 8 3 8 -1 21 -9 28 -16 13 -13 30 5 30 6 0 7 -6 3 -12 -4 -7 3 -3
16 8 18 18 20 25 11 40 -11 17 -11 16 -5 -6 3 -14 3 -22 -1 -17 -5 4 -18 1
-31 -7 -21 -14 -34 -12 -34 6 0 4 3 7 8 7 29 -5 34 2 17 21 -10 11 -13 20 -7
20 7 0 12 5 12 12 0 6 -10 2 -23 -10 l-24 -22 -11 25 c-14 31 -15 38 -3 31 4
-3 17 1 27 10 18 14 18 15 -3 4 -27 -13 -30 -3 -5 17 15 13 15 14 0 9 -9 -3
-19 0 -22 7 -3 7 -5 6 -4 -3 3 -24 -13 -61 -23 -55 -5 4 -5 13 0 24 15 27 -2
46 -29 31 -12 -6 -24 -9 -28 -6 -3 3 -2 6 3 6 4 0 2 7 -5 15 -9 11 -10 18 -1
28 6 8 8 17 4 20 -3 4 -2 7 4 7 17 0 35 -28 28 -41 -6 -8 -10 -8 -16 2 -4 7
-11 10 -16 6 -15 -16 21 -26 38 -11 13 11 18 12 21 3 6 -17 41 -21 50 -6 5 8
8 7 8 -4 0 -9 10 -28 21 -43 12 -15 22 -39 22 -53 0 -17 2 -21 8 -12 4 7 5 18
2 24 -4 5 12 -8 35 -29 22 -22 39 -43 36 -47 -2 -4 1 -11 7 -15 8 -4 9 -3 5 4
-4 7 -2 12 3 12 6 0 11 9 11 21 0 11 4 18 9 15 4 -3 6 6 3 19 -2 14 2 33 9 42
8 10 9 14 2 10 -15 -9 -14 35 2 45 6 5 6 8 -2 8 -7 0 -13 7 -13 16 0 8 4 13 8
10 5 -3 9 1 9 9 0 8 -4 12 -9 9 -7 -4 -12 17 -9 38 0 4 -6 25 -14 48 -8 23
-12 47 -8 53 3 5 2 7 -4 4 -5 -3 -16 9 -23 28 -8 19 -17 35 -22 35 -4 0 -8 5
-8 11 0 6 15 0 33 -14 17 -14 31 -31 29 -37 -1 -6 2 -9 7 -6 5 4 31 -14 56
-39 26 -25 51 -45 57 -45 7 0 8 25 5 68 -6 72 -8 82 -25 125 -7 15 -16 38 -22
52 -6 15 -28 34 -55 47 -25 12 -40 25 -34 29 18 10 -11 47 -54 68 -23 12 -53
18 -78 16 -21 -2 -39 0 -39 5 0 5 -9 12 -20 15 -20 6 -20 7 1 36 18 26 19 30
4 35 -13 5 -10 10 15 25 17 11 29 23 26 28 -3 5 39 55 94 112 l100 104 -26 13
c-14 7 -49 13 -79 13 -97 0 -169 -29 -247 -99 -35 -31 -38 -32 -38 -13 0 31
-18 26 -71 -19 -26 -22 -49 -40 -51 -40 -2 0 -3 20 -3 45 1 33 -2 45 -13 45
-9 0 -12 6 -8 16 3 8 2 23 -3 32 -9 18 -15 47 -26 145 -4 31 -9 57 -12 57 -3
0 -19 -10 -35 -22 -40 -28 -77 -110 -79 -175 -2 -38 -5 -50 -16 -46 -12 5 -16
-7 -16 -57 0 -8 3 -30 8 -49 8 -37 11 -37 -60 11 -26 17 -56 28 -85 30 -42 3
-45 2 -42 -21 2 -24 2 -24 -20 4 -21 27 -23 27 -103 23 -45 -3 -91 -11 -102
-18 -20 -13 -20 -14 12 -69 18 -31 36 -73 39 -93 4 -22 13 -38 23 -40 14 -3
14 -5 -2 -18 -15 -12 -17 -12 -10 -1 6 10 4 12 -5 6 -10 -6 -8 -13 11 -27 13
-10 29 -22 36 -28 7 -5 19 -10 28 -10 8 0 15 -5 15 -11 0 -5 5 -7 11 -3 7 4
10 1 7 -7 -2 -7 -19 -14 -37 -15 -25 -1 -31 2 -26 14 3 8 -3 21 -12 28 -22 16
-33 17 -33 3 0 -5 4 -8 9 -4 5 3 12 1 15 -4 6 -9 -23 -25 -32 -17 -2 3 -5 18
-5 33 0 15 -2 22 -4 16 -3 -7 -9 -13 -14 -13 -6 0 -7 5 -4 10 3 6 1 10 -4 10
-17 0 -13 -18 7 -29 13 -8 15 -14 6 -28 -6 -10 -20 -20 -30 -22 -16 -3 -15 0
6 19 14 12 20 19 14 16 -6 -3 -18 8 -28 25 -15 25 -15 29 -2 29 9 0 16 5 16
10 0 8 -6 8 -17 1 -13 -7 -23 -5 -35 6 -10 9 -18 11 -18 6 0 -6 7 -13 14 -16
8 -3 22 -19 30 -35 13 -26 13 -31 0 -51 -9 -12 -20 -19 -25 -15 -6 3 -4 11 6
18 10 7 14 18 9 30 -6 16 -9 14 -23 -15 -16 -34 -32 -41 -40 -18 -2 6 1 9 7 5
6 -3 14 -1 17 5 11 17 -2 22 -23 7 -17 -12 -18 -16 -7 -32 8 -10 19 -15 27
-11 7 3 4 -1 -6 -9 -11 -9 -15 -16 -10 -16 6 0 16 6 23 13 7 6 12 8 11 2 -5
-22 1 -27 16 -15 12 11 15 11 12 1 -2 -8 8 -14 25 -16 28 -4 36 8 15 21 -7 5
-8 3 -3 -5 6 -10 3 -11 -14 -2 -11 7 -21 14 -21 17 0 3 5 2 12 -2 6 -4 18 2
26 12 10 12 13 14 9 4 -2 -9 1 -24 9 -35 8 -10 14 -14 14 -9 0 6 7 11 15 11 8
0 12 -4 9 -9 -3 -4 0 -8 5 -8 6 0 11 7 11 15 0 8 -5 15 -11 15 -5 0 -8 4 -4
10 10 16 34 0 30 -20 -3 -13 1 -17 12 -13 8 3 11 9 6 12 -4 3 -9 15 -11 26 -2
17 0 16 12 -4 l14 -24 11 22 c7 12 17 18 23 15 7 -4 8 -3 4 5 -4 6 0 14 9 18
10 3 21 0 25 -7 5 -9 9 -9 13 -1 4 8 5 8 3 0 -1 -7 -10 -13 -21 -15 -19 -3
-37 -23 -29 -35 2 -5 -4 -6 -16 -4 -13 2 -31 -8 -52 -30 -17 -19 -36 -31 -41
-28 -7 4 -8 -1 -4 -13 7 -18 6 -18 -7 -1 -8 11 -17 14 -20 8 -4 -5 4 -17 16
-27 16 -11 17 -15 5 -10 -14 4 -16 1 -13 -20 3 -15 2 -23 -2 -19 -4 3 -8 19
-8 33 -1 15 -2 28 -3 30 -1 1 -10 -7 -21 -18 -21 -21 -46 -28 -35 -10 3 6 13
10 21 10 19 0 18 14 -3 31 -15 12 -16 12 -10 -3 4 -12 2 -15 -9 -11 -8 3 -22
-1 -32 -8 -16 -13 -16 -13 -2 5 14 18 13 19 -4 13 -17 -7 -18 -6 -3 17 18 27
11 45 -8 20 -11 -15 -12 -15 -12 0 0 9 4 16 8 16 5 0 -2 11 -14 24 -13 13 -23
34 -24 47 -1 12 -12 32 -25 43 l-22 21 18 -23 c11 -12 16 -25 13 -29 -4 -3 -7
-2 -7 4 0 5 -16 18 -35 29 -19 10 -35 22 -35 26 0 3 -6 8 -13 10 -9 2 -7 9 7
22 16 16 18 16 13 3 -3 -9 -3 -17 2 -17 5 0 11 9 14 20 3 11 2 18 -2 15 -5 -2
-16 2 -27 9 -16 12 -17 16 -4 32 13 17 13 18 0 7 -12 -9 -20 -7 -39 13 -13 13
-27 24 -33 24 -5 0 -6 6 -2 13 4 6 4 9 0 5 -4 -3 -24 -1 -44 6 -21 7 -56 13
-79 12 -33 -1 -42 2 -40 13 1 10 -16 20 -53 32 l-55 17 30 12 c50 19 147 42
186 44 20 0 35 4 33 8 -2 3 9 9 25 13 17 3 49 20 72 37 l42 30 -29 19 -29 19
28 0 c17 0 27 5 27 15 0 23 0 22 15 66 8 23 31 68 51 100 19 32 33 63 30 67
-12 20 -195 46 -241 36 -11 -3 -30 -21 -43 -40 -27 -41 -39 -40 -20 0 9 22 9
29 0 35 -22 13 -69 0 -81 -22 -11 -22 -11 -22 -5 1 3 12 1 22 -4 22 -6 0 -44
-23 -86 -50 -82 -56 -148 -124 -203 -212 -31 -50 -37 -55 -50 -42 -13 13 -12
16 6 32 41 33 59 220 32 335 -43 183 -221 316 -483 361 -24 5 -38 3 -38 -4z
m793 -1213 c-4 -6 0 -8 9 -5 9 4 26 -4 41 -18 14 -13 30 -24 36 -24 5 0 11 -3
13 -8 2 -4 16 -17 32 -30 16 -12 22 -22 15 -22 -11 0 -11 -2 1 -9 8 -6 18 -7
22 -5 4 3 8 0 8 -5 0 -6 -4 -11 -8 -11 -5 0 -9 -7 -9 -15 0 -8 4 -15 9 -15 4
0 8 5 8 10 0 6 5 10 12 10 9 0 9 -3 0 -12 -7 -7 -12 -16 -12 -22 0 -6 5 -5 12
2 7 7 17 12 23 12 5 0 1 -7 -9 -15 -17 -13 -22 -13 -38 1 -16 16 -18 15 -26
-6 -7 -20 -10 -21 -15 -7 -4 10 -12 17 -18 17 -8 0 -8 -4 0 -14 14 -16 -1 -56
-20 -56 -6 0 -3 7 5 16 9 8 16 21 16 27 0 7 -7 4 -14 -6 -8 -11 -17 -14 -20
-8 -4 5 -14 10 -24 10 -38 1 -51 5 -46 12 2 4 0 10 -6 14 -6 4 -7 11 -4 17 4
6 1 14 -7 18 -10 7 -10 11 1 24 11 14 10 16 -4 10 -24 -9 -19 1 9 20 24 16 25
16 22 -5 -2 -11 -9 -24 -17 -29 -9 -6 -7 -11 10 -20 18 -10 21 -10 15 2 -3 7
0 5 8 -5 13 -16 15 -16 21 -2 4 11 2 14 -7 9 -7 -5 -6 0 3 12 22 29 24 30 18
13 -4 -9 -1 -16 7 -16 8 0 11 7 7 15 -4 12 -1 14 14 8 12 -4 8 3 -11 18 -16
14 -25 25 -18 26 6 0 13 -6 16 -12 2 -8 8 -9 13 -4 5 5 4 11 -4 13 -7 3 -25
16 -39 29 -19 17 -29 21 -38 14 -7 -6 -15 -7 -17 -3 -3 4 -3 3 -2 -4 2 -7 -1
-15 -6 -18 -6 -4 -11 -1 -11 4 -1 6 -2 17 -3 24 0 6 -11 12 -23 13 -15 1 -20
-3 -15 -14 4 -11 7 -12 10 -4 2 7 8 12 13 12 6 0 8 -4 5 -9 -3 -4 1 -16 8 -27
14 -18 15 -18 33 5 l18 23 19 -21 c11 -12 14 -21 8 -21 -6 0 -14 5 -17 11 -5
6 -13 3 -22 -10 -8 -12 -18 -21 -23 -21 -17 0 -70 62 -70 81 0 11 -4 17 -10
14 -5 -3 -10 -1 -10 4 0 6 -13 24 -30 39 -16 16 -30 32 -30 35 0 3 38 -13 85
-36 46 -22 81 -45 78 -50z m603 23 c0 -10 -2 -17 -5 -15 -7 8 -31 -16 -26 -25
3 -5 -3 -7 -12 -6 -27 4 -23 49 5 51 12 1 25 5 29 8 9 9 9 10 9 -13z m-121
-20 c6 5 16 5 25 -1 13 -9 13 -10 0 -6 -8 2 -24 -3 -35 -12 -11 -9 -17 -12
-13 -7 4 5 2 16 -4 25 -10 13 -10 14 2 4 8 -8 18 -9 25 -3z m-871 -101 c-2 -4
3 -9 11 -13 8 -3 15 -12 15 -20 0 -10 6 -13 15 -10 8 4 13 9 10 14 -2 4 1 15
8 24 10 14 12 7 12 -38 0 -48 -2 -53 -15 -43 -9 7 -7 3 5 -8 11 -11 29 -38 40
-59 11 -21 25 -40 32 -43 6 -3 9 -12 6 -20 -4 -10 -2 -14 4 -10 5 3 17 -3 26
-14 11 -13 13 -19 4 -19 -8 0 -7 -4 3 -10 24 -15 29 -12 24 15 -3 15 0 25 7
25 7 0 9 -3 6 -7 -4 -3 -2 -12 4 -19 7 -8 7 -14 -1 -19 -5 -3 -10 -11 -10 -17
0 -6 7 -5 18 3 14 11 13 9 -2 -9 -14 -16 -25 -20 -40 -16 -18 6 -19 5 -8 -9 7
-8 21 -13 32 -10 22 6 27 -11 8 -23 -7 -4 -8 -3 -4 4 4 7 2 12 -3 12 -6 0 -11
-6 -12 -12 0 -10 -2 -10 -6 0 -2 6 -9 10 -14 6 -5 -3 -8 0 -7 7 2 6 -3 14 -10
16 -7 3 -10 -1 -7 -9 4 -9 -10 -23 -37 -38 -24 -13 -44 -23 -45 -22 -8 6 -25
1 -19 -5 11 -11 30 -10 38 1 4 6 11 7 15 2 4 -5 2 -11 -6 -14 -11 -4 -11 -6 0
-13 7 -4 10 -11 6 -15 -4 -4 -14 1 -21 12 -14 18 -15 17 -14 -14 1 -23 4 -30
12 -22 5 5 14 10 20 10 5 0 2 -6 -8 -13 -15 -11 -22 -28 -25 -60 -1 -5 -5 -6
-10 -3 -5 3 -11 -1 -14 -9 -4 -8 5 -23 20 -35 14 -11 21 -20 16 -20 -5 0 -14
5 -21 12 -9 9 -12 9 -12 1 0 -7 5 -15 10 -18 6 -3 10 -12 10 -18 0 -7 -7 -3
-16 8 -8 11 -12 25 -9 33 3 10 -1 12 -18 8 -12 -3 -16 -3 -9 0 6 3 12 10 12
15 0 6 -6 7 -12 3 -8 -5 -7 0 2 11 13 17 13 18 -1 13 -12 -5 -15 0 -14 20 1
15 -1 32 -4 37 -9 16 -9 98 0 83 7 -10 9 -9 9 5 0 9 4 17 9 17 12 0 9 -33 -4
-42 -6 -5 -4 -8 5 -8 13 0 13 -1 0 -10 -9 -6 -10 -10 -3 -10 13 0 26 17 30 39
1 7 7 19 14 25 9 8 10 7 4 -4 -8 -13 -6 -13 7 -2 9 8 15 19 12 27 -3 7 0 16 6
20 8 5 7 11 -2 23 -12 16 -11 16 6 2 16 -12 18 -12 11 -1 -5 8 -4 12 1 8 5 -3
18 1 29 9 10 8 14 14 7 14 -6 0 -9 9 -7 20 2 11 -1 20 -7 20 -6 0 -8 3 -5 6 8
9 -11 44 -23 44 -6 0 -10 -5 -10 -11 0 -5 5 -7 10 -4 6 3 10 1 10 -4 0 -6 -5
-11 -12 -11 -6 0 -3 -7 8 -15 18 -14 18 -15 -6 -6 -16 5 -24 15 -22 26 3 14 0
14 -19 -4 -13 -12 -30 -21 -40 -21 -9 0 -20 -7 -23 -15 -6 -17 12 -28 39 -23
9 2 23 -6 31 -18 13 -19 12 -23 -3 -35 -15 -12 -16 -12 -10 4 10 27 -1 39 -23
27 -12 -7 -17 -16 -13 -27 4 -10 2 -14 -5 -9 -6 3 -14 1 -18 -5 -4 -7 -3 -9 3
-6 5 3 10 0 10 -8 0 -17 -16 -21 -18 -5 -1 6 -2 16 -3 23 -1 6 4 18 12 26 7 7
10 16 7 19 -3 4 -10 0 -14 -7 -5 -7 -8 56 -6 140 3 191 3 188 14 169 6 -8 8
-17 5 -21z m447 11 c13 -11 20 -20 14 -19 -22 3 -35 -2 -32 -12 1 -6 -6 -13
-16 -14 -11 -2 -14 1 -10 8 4 7 8 17 8 22 1 6 7 9 15 7 10 -1 8 3 -4 13 -11 8
-15 15 -9 15 6 0 21 -9 34 -20z m-86 0 c3 -5 1 -10 -4 -10 -6 0 -11 5 -11 10
0 6 2 10 4 10 3 0 8 -4 11 -10z m496 -43 c-6 -8 -8 -16 -5 -19 3 -3 0 -9 -7
-14 -8 -4 -10 -3 -5 4 4 7 2 12 -5 12 -7 0 -4 7 7 15 24 18 30 19 15 2z m62
-37 c3 -11 3 -20 1 -20 -2 0 -8 9 -14 20 -6 11 -7 20 -2 20 6 0 12 -9 15 -20z
m717 -41 c13 -24 13 -39 -1 -39 -6 0 -9 6 -6 13 3 8 -1 14 -8 14 -11 0 -11 -5
-4 -19 7 -13 17 -17 30 -13 17 6 24 -3 20 -27 0 -5 4 -8 11 -8 8 0 6 -6 -4
-17 -11 -11 -21 -13 -30 -7 -8 5 -6 2 4 -8 18 -16 25 -33 10 -24 -5 3 -9 -1
-9 -9 0 -8 4 -15 9 -15 4 0 8 5 8 12 0 6 3 8 7 4 5 -4 -1 -14 -11 -22 -11 -8
-15 -14 -9 -14 12 0 12 -25 0 -36 -4 -4 -8 2 -8 14 -2 22 -5 40 -9 45 -1 1 -3
11 -5 22 -2 11 -6 30 -9 43 -4 20 -3 21 15 11 12 -6 23 -8 27 -5 3 3 -1 6 -9
6 -12 0 -11 2 1 11 13 9 13 10 0 8 -35 -4 -48 2 -52 24 -6 30 1 49 14 41 7 -4
8 -2 4 5 -6 9 -11 9 -24 -1 -13 -11 -15 -11 -10 3 4 9 1 22 -5 29 -7 7 1 5 16
-5 15 -10 32 -26 37 -36z m-770 31 c0 -5 -8 -10 -17 -10 -15 0 -16 2 -3 10 19
12 20 12 20 0z m-243 -7 c-4 -3 1 -12 11 -19 15 -12 15 -12 -5 -7 -13 3 -23 9
-23 12 0 9 11 21 18 21 3 0 2 -3 -1 -7z m-62 -33 c-3 -4 -16 -10 -30 -12 -13
-3 -22 -1 -19 3 3 5 14 9 26 9 18 0 19 2 7 18 -13 15 -12 16 3 3 10 -7 16 -17
13 -21z m351 18 c3 -4 -1 -5 -10 -4 -8 1 -18 5 -22 8 -3 4 1 5 10 4 8 -1 18
-5 22 -8z m-311 -17 c3 -5 0 -13 -6 -17 -7 -4 -9 -3 -5 4 3 5 0 13 -6 15 -9 4
-10 6 -1 6 6 1 14 -3 18 -8z m-185 -11 c13 -9 13 -10 0 -10 -12 -1 -11 -3 3
-11 9 -5 17 -19 17 -29 0 -14 5 -18 18 -14 14 5 14 4 2 -4 -18 -14 -30 -6 -30
19 0 23 -15 25 -24 4 -3 -8 -13 -15 -22 -15 -10 0 -14 5 -10 15 3 8 -2 19 -12
24 -9 6 -12 11 -6 11 15 0 36 -25 27 -33 -3 -4 -1 -7 5 -7 7 0 13 5 13 10 1 6
2 16 3 23 1 6 -3 15 -9 19 -15 12 7 9 25 -2z m505 1 c3 -5 2 -12 -3 -15 -5 -3
-9 1 -9 9 0 17 3 19 12 6z m-465 -11 c0 -5 -4 -10 -10 -10 -5 0 -10 5 -10 10
0 6 5 10 10 10 6 0 10 -4 10 -10z m95 -18 c-3 -3 -11 0 -18 7 -9 10 -8 11 6 5
10 -3 15 -9 12 -12z m-30 -1 c3 -5 0 -13 -6 -17 -8 -5 -9 -3 -4 6 6 10 4 12
-9 7 -10 -4 -15 -3 -11 3 8 13 22 13 30 1z m145 5 c0 -2 -7 -7 -16 -10 -8 -3
-12 -2 -9 4 6 10 25 14 25 6z m-193 -12 c-3 -3 -12 -4 -19 -1 -8 3 -5 6 6 6
11 1 17 -2 13 -5z m133 2 c0 -2 -8 -10 -17 -17 -16 -13 -17 -12 -4 4 13 16 21
21 21 13z m-50 -16 c-8 -5 -19 -10 -25 -10 -5 0 -3 5 5 10 8 5 20 10 25 10 6
0 3 -5 -5 -10z m-124 -57 c-3 -4 -6 -1 -6 6 0 7 -4 10 -8 7 -4 -2 -9 5 -9 16
-2 21 -2 21 14 -1 8 -12 12 -25 9 -28z m234 33 c0 -2 -8 -10 -17 -17 -16 -13
-17 -12 -4 4 13 16 21 21 21 13z m577 -11 c0 -8 -3 -13 -5 -10 -3 3 -10 0 -17
-5 -8 -7 -12 -5 -12 5 0 8 4 12 8 9 4 -2 10 0 14 6 9 14 12 13 12 -5z m-757
-4 c0 -6 -4 -12 -8 -15 -5 -3 -9 1 -9 9 0 8 4 15 9 15 4 0 8 -4 8 -9z m1045
-21 c2 -12 1 -20 -2 -16 -4 4 -8 16 -10 28 -2 12 -1 19 2 16 3 -3 8 -16 10
-28z m171 19 c3 -6 0 -15 -7 -20 -11 -6 -8 -9 8 -9 12 0 25 -5 28 -10 4 -6 -3
-9 -16 -7 -24 4 -52 35 -43 48 7 12 22 11 30 -2z m-1628 -17 c2 -8 -3 -10 -14
-5 -16 6 -17 5 -4 -9 13 -13 16 -13 25 -1 13 18 44 7 41 -14 -3 -17 -36 -28
-36 -12 0 6 -4 8 -9 5 -5 -3 -14 1 -21 9 -8 10 -21 13 -39 8 -29 -6 -24 3 11
22 26 15 40 14 46 -3z m1096 0 c3 -5 -1 -9 -9 -9 -8 0 -12 4 -9 9 3 4 7 8 9 8
2 0 6 -4 9 -8z m-770 -28 c3 -8 2 -12 -4 -9 -6 3 -10 10 -10 16 0 14 7 11 14
-7z m56 11 c0 -2 -6 -8 -13 -14 -10 -8 -14 -7 -14 2 0 8 6 14 14 14 7 0 13 -1
13 -2z m165 -13 c-3 -3 -11 0 -18 7 -9 10 -8 11 6 5 10 -3 15 -9 12 -12z m910
-20 c-3 -3 -11 0 -18 6 -8 7 -17 9 -21 5 -4 -4 -4 0 -1 9 6 15 8 15 25 0 11
-9 17 -18 15 -20z m-1030 0 c-3 -3 -11 0 -18 7 -9 10 -8 11 6 5 10 -3 15 -9
12 -12z m1217 3 c4 -5 2 -15 -4 -22 -7 -9 -7 -17 0 -25 6 -7 11 -17 11 -23 0
-5 12 -11 26 -12 16 -1 23 2 19 9 -4 7 -2 8 4 4 8 -5 9 -13 2 -26 -7 -13 -6
-21 4 -29 7 -6 16 -8 19 -4 6 5 8 0 7 -22 0 -3 5 -12 12 -19 11 -12 14 -12 21
0 9 15 27 10 27 -7 0 -6 -4 -8 -9 -4 -23 14 -21 -19 3 -44 28 -29 32 -41 16
-41 -5 0 -10 7 -10 16 0 11 -6 14 -22 8 -21 -6 -22 -5 -8 11 8 11 10 16 3 12
-6 -4 -15 -2 -19 4 -5 8 -3 9 6 4 9 -5 11 -4 6 4 -4 6 -12 9 -17 5 -6 -3 -9 0
-7 7 4 18 -3 22 -24 14 -10 -4 -15 -12 -12 -17 4 -6 10 -5 16 3 8 11 9 11 5
-1 -2 -8 -10 -14 -16 -12 -6 1 -11 -3 -11 -8 0 -14 13 -13 28 2 7 7 12 9 12 5
0 -4 -14 -16 -31 -26 -18 -11 -26 -22 -20 -25 6 -4 11 -3 11 3 0 5 9 9 20 8
11 -1 20 -5 20 -10 0 -5 -6 -7 -14 -4 -18 7 -15 -18 4 -36 10 -10 12 -9 8 3
-7 19 17 56 26 41 4 -5 -1 -14 -10 -19 -15 -8 -15 -10 0 -15 10 -4 15 -3 12 1
-2 4 8 8 24 8 21 1 27 -2 23 -12 -4 -11 -9 -12 -18 -4 -9 8 -15 8 -20 0 -3 -6
-11 -8 -16 -5 -5 3 -6 -1 -3 -9 3 -9 10 -14 15 -11 4 3 13 -4 20 -17 11 -20
12 -20 24 -4 12 16 14 16 29 -6 20 -28 21 -44 1 -28 -8 7 -12 16 -9 21 3 5 1
9 -4 9 -6 0 -12 -7 -16 -15 -3 -8 -12 -12 -21 -9 -8 3 -15 1 -15 -5 0 -6 5
-10 12 -8 7 1 13 -8 14 -20 1 -14 -3 -20 -10 -16 -8 5 -8 2 -1 -8 6 -8 2 -6
-7 4 -10 11 -18 17 -18 14 0 -3 -3 -13 -7 -23 -4 -10 -2 -15 3 -11 13 8 41
-10 31 -20 -5 -4 -12 -1 -17 7 -6 8 -10 11 -10 6 0 -5 11 -19 24 -31 21 -19
25 -20 35 -6 6 9 9 10 6 3 -4 -7 -2 -19 5 -27 7 -8 7 -15 1 -19 -11 -7 -9 -25
3 -45 6 -9 10 -10 16 -2 5 9 13 7 29 -6 l22 -18 -27 -2 c-20 -1 -24 1 -13 9
11 7 9 8 -6 4 -15 -4 -28 4 -49 30 -15 19 -30 33 -33 30 -3 -3 4 -13 16 -23
12 -10 23 -25 24 -33 2 -8 6 -21 10 -27 5 -8 3 -13 -4 -13 -7 0 -9 -3 -6 -7 4
-3 0 -17 -9 -31 -11 -17 -12 -22 -3 -16 10 6 10 3 -1 -11 -12 -15 -12 -17 -1
-10 10 6 12 4 6 -5 -5 -8 -4 -11 3 -6 6 3 9 15 7 26 -2 12 0 18 5 15 6 -3 7 2
4 12 -5 14 -4 15 4 4 6 -9 7 -23 2 -37 -8 -19 -4 -27 18 -44 21 -17 23 -23 12
-30 -7 -5 -14 -17 -16 -27 -1 -10 -5 -27 -9 -38 -5 -11 -5 -17 0 -13 9 9 35
-9 35 -23 0 -5 -4 -9 -10 -9 -5 0 -10 8 -10 17 0 10 -11 2 -29 -23 -16 -21
-28 -40 -27 -42 2 -1 14 -5 26 -7 32 -6 33 -9 11 -36 -12 -15 -30 -24 -50 -25
-16 0 -28 3 -25 7 2 4 0 10 -6 14 -5 3 -10 0 -10 -7 0 -10 -2 -10 -8 -1 -4 6
-19 10 -34 9 -20 -2 -25 1 -21 12 5 12 1 11 -20 -3 -25 -16 -26 -16 -22 4 4
23 4 24 -19 15 -9 -3 -13 -11 -9 -17 4 -6 1 -7 -7 -2 -10 6 -9 11 6 22 20 15
40 12 37 -6 -3 -12 10 -15 20 -4 4 3 2 12 -3 19 -6 6 -10 16 -9 20 4 22 -2 35
-13 28 -7 -4 -8 -3 -4 4 13 21 35 2 30 -26 -4 -22 -3 -25 8 -14 7 7 13 20 13
30 0 12 7 16 22 15 16 -2 21 2 17 12 -4 8 -1 16 5 16 6 1 16 3 21 4 6 1 13 3
18 4 4 1 0 5 -8 11 -9 5 -19 5 -26 -1 -6 -5 -19 -6 -29 -3 -11 5 -13 9 -5 14
8 5 7 9 -3 13 -25 9 -28 -21 -4 -38 12 -8 16 -15 10 -15 -6 0 -18 7 -26 15 -8
8 -18 11 -22 7 -4 -4 0 5 10 20 9 15 21 26 25 23 14 -8 40 6 40 22 0 12 -3 13
-15 3 -8 -6 -19 -9 -24 -6 -5 4 -17 -4 -25 -16 -9 -12 -16 -17 -16 -11 0 6 7
16 15 23 14 11 13 14 -1 25 -18 12 -12 35 9 35 7 0 6 -4 -3 -10 -13 -8 -12
-11 5 -24 26 -20 29 -20 50 4 10 11 13 20 7 20 -6 0 -14 -4 -17 -10 -8 -13
-25 -13 -25 0 0 6 5 9 11 8 6 -2 14 3 16 10 3 8 -1 10 -11 6 -9 -3 -16 -1 -16
6 0 6 4 9 9 6 13 -9 32 19 25 38 -3 9 -1 16 6 16 6 0 8 -4 5 -10 -3 -5 -1 -10
4 -10 6 0 11 2 11 4 0 2 3 12 7 22 4 12 3 15 -5 10 -8 -5 -10 -2 -6 9 4 9 3
15 -2 13 -5 -1 -19 4 -31 12 l-22 14 21 23 c24 26 14 32 -12 8 -16 -14 -19
-13 -34 10 -9 14 -12 25 -6 25 5 0 10 -5 10 -11 0 -5 4 -7 10 -4 6 4 7 -1 3
-12 -6 -16 -5 -17 11 -3 17 13 17 15 -4 32 -12 10 -19 22 -15 28 8 13 35 13
35 0 0 -5 5 -10 10 -10 7 0 7 6 0 19 -5 11 -7 27 -4 35 4 11 2 15 -8 11 -9 -4
-25 7 -42 29 l-26 35 22 15 c24 17 36 80 14 73 -6 -2 -11 -15 -10 -29 1 -20
-3 -25 -14 -20 -10 3 -13 1 -8 -6 4 -7 2 -12 -3 -12 -16 0 -13 20 4 26 8 4 15
10 15 16 0 5 -5 6 -12 2 -6 -4 -8 -3 -4 4 3 5 0 13 -6 16 -7 3 -4 4 6 3 10 -1
21 3 23 10 5 15 -33 9 -53 -8 -10 -8 -14 -8 -14 0 0 6 5 11 12 11 6 0 3 9 -7
20 -10 11 -13 20 -8 20 6 0 13 -6 16 -13 7 -18 46 -15 58 4 13 21 11 29 -6 23
-8 -4 -13 -9 -11 -13 3 -4 -4 -7 -14 -7 -18 0 -18 2 -5 23 8 12 15 28 15 35 0
8 -5 6 -11 -5 -6 -9 -15 -14 -21 -11 -7 5 -9 1 -5 -9 4 -11 2 -14 -9 -10 -8 3
-13 8 -10 11 3 2 1 14 -5 25 -7 13 -7 17 -1 13 6 -3 13 -2 16 3 3 5 0 11 -8
14 -7 3 -12 18 -12 34 1 15 -3 34 -8 41 -6 9 -4 11 8 6 11 -4 16 -2 14 7 -2 8
4 13 12 11 13 -2 13 -1 0 10 -14 11 -16 22 -11 43 2 9 35 1 43 -10z m-1172 1
c0 -2 -8 -10 -17 -17 -16 -13 -17 -12 -4 4 13 16 21 21 21 13z m-504 -22 c-10
-27 5 -36 27 -17 18 15 20 15 8 1 -7 -9 -9 -23 -5 -29 4 -7 3 -9 -4 -5 -6 3
-18 -4 -28 -16 -11 -16 -15 -18 -10 -5 3 11 0 20 -9 24 -12 4 -13 9 -4 19 6 7
7 19 3 25 -4 8 -3 9 4 5 7 -4 12 -2 12 3 0 6 3 11 6 11 3 0 3 -7 0 -16z m1444
6 c0 -5 -4 -10 -10 -10 -5 0 -10 5 -10 10 0 6 5 10 10 10 6 0 10 -4 10 -10z
m-1245 -10 c-3 -5 -1 -10 6 -10 7 0 10 -3 6 -6 -9 -9 -28 6 -22 17 4 5 8 9 11
9 3 0 2 -4 -1 -10z m242 -5 c0 -8 -4 -12 -9 -9 -5 3 -6 10 -3 15 9 13 12 11
12 -6z m1045 -4 c-8 -4 -13 -11 -12 -15 1 -4 -1 -12 -4 -19 -3 -9 -1 26 3 41
1 1 7 2 14 2 9 0 9 -2 -1 -9z m-862 -5 c0 -2 -8 -10 -17 -17 -16 -13 -17 -12
-4 4 13 16 21 21 21 13z m821 -23 c-12 -20 -14 -14 -5 12 4 9 9 14 11 11 3 -2
0 -13 -6 -23z m-1226 -13 c3 -6 -1 -7 -10 -4 -11 5 -14 2 -9 -12 5 -15 4 -16
-4 -4 -11 15 -7 30 8 30 5 0 12 -4 15 -10z m1190 -37 c-18 -17 -18 -17 -6 0
11 14 11 20 0 35 -12 16 -12 16 6 0 19 -18 19 -18 0 -35z m-1252 25 c9 0 15
-3 12 -7 -2 -5 -16 -8 -30 -8 -14 0 -22 4 -18 10 4 6 0 8 -11 4 -11 -4 -15 -3
-11 4 4 6 14 7 24 3 9 -4 24 -6 34 -6z m287 -8 c0 -5 -2 -10 -4 -10 -3 0 -8 5
-11 10 -3 6 -1 10 4 10 6 0 11 -4 11 -10z m-330 -31 c0 -5 10 -13 22 -18 l22
-8 -22 -5 c-12 -4 -20 -2 -17 2 3 5 1 11 -5 15 -10 6 -14 -7 -11 -32 1 -7 -3
-13 -9 -13 -6 0 -8 5 -5 10 3 6 1 10 -4 10 -6 0 -11 5 -11 11 0 5 5 7 10 4 6
-3 10 -4 10 -1 0 2 3 13 7 23 6 15 4 16 -8 6 -12 -10 -15 -8 -15 7 0 15 4 16
18 9 10 -5 18 -14 18 -20z m70 11 c0 -5 -5 -10 -11 -10 -5 0 -7 5 -4 10 3 6 8
10 11 10 2 0 4 -4 4 -10z m-33 -6 c-3 -3 -12 -4 -19 -1 -8 3 -5 6 6 6 11 1 17
-2 13 -5z m1286 -9 c-3 -9 -8 -14 -10 -11 -3 3 -2 9 2 15 9 16 15 13 8 -4z
m40 -20 c-3 -9 -8 -14 -10 -11 -3 3 -2 9 2 15 9 16 15 13 8 -4z m-1248 -24
c-9 -8 -36 -10 -30 -2 2 4 11 8 20 8 8 0 13 -3 10 -6z m-150 -21 c4 -6 11 -7
17 -4 7 5 8 2 4 -5 -5 -7 -10 -10 -13 -7 -3 3 -12 -2 -21 -10 -13 -14 -13 -17
-1 -26 11 -8 11 -9 -3 -5 -9 4 -19 -1 -22 -10 -5 -11 -2 -14 11 -9 15 6 16 5
5 -5 -10 -11 -16 -10 -30 5 -9 11 -12 16 -5 12 10 -6 23 17 28 49 4 22 5 25
14 25 6 0 13 -5 16 -10z m-315 -20 c0 -5 -7 -7 -15 -4 -8 4 -12 10 -9 15 6 11
24 2 24 -11z m374 11 c3 -5 -1 -11 -9 -14 -9 -4 -12 -1 -8 9 6 16 10 17 17 5z
m87 -8 c13 -16 12 -17 -3 -4 -10 7 -18 15 -18 17 0 8 8 3 21 -13z m36 2 c0 -8
-4 -12 -9 -9 -5 3 -6 10 -3 15 9 13 12 11 12 -6z m1511 -21 c-1 -5 -9 -9 -16
-10 -10 -2 -11 1 -1 12 12 14 24 13 17 -2z m-1668 -4 c0 -5 -4 -10 -10 -10 -5
0 -10 5 -10 10 0 6 5 10 10 10 6 0 10 -4 10 -10z m77 -7 c0 -9 -4 -10 -14 -2
-7 6 -13 12 -13 14 0 1 6 2 13 2 8 0 14 -6 14 -14z m1263 13 c0 -3 -4 -8 -10
-11 -5 -3 -10 -1 -10 4 0 6 5 11 10 11 6 0 10 -2 10 -4z m-1199 -29 c-6 -8 -7
-18 -3 -22 4 -5 1 -5 -6 -1 -10 6 -10 11 -1 22 6 8 14 14 16 14 3 0 0 -6 -6
-13z m1572 0 c3 -8 -1 -14 -8 -14 -7 0 -11 6 -8 14 3 7 6 13 8 13 2 0 5 -6 8
-13z m-1699 -5 c2 -4 -4 -8 -14 -8 -10 0 -16 4 -14 8 3 4 9 8 14 8 5 0 11 -4
14 -8z m1297 -25 c-10 -9 -11 -8 -5 6 3 10 9 15 12 12 3 -3 0 -11 -7 -18z
m-1331 -7 c0 -5 -4 -10 -10 -10 -5 0 -10 5 -10 10 0 6 5 10 10 10 6 0 10 -4
10 -10z m1580 -10 c0 -5 -7 -7 -15 -4 -8 4 -15 8 -15 10 0 2 7 4 15 4 8 0 15
-4 15 -10z m-1676 -17 c4 -9 1 -21 -5 -27 -9 -8 -10 -8 -5 2 4 7 2 19 -4 27
-7 9 -8 15 -2 15 5 0 13 -8 16 -17z m211 7 c3 -5 1 -10 -4 -10 -6 0 -11 5 -11
10 0 6 2 10 4 10 3 0 8 -4 11 -10z m-138 -7 c-4 -3 1 -12 11 -20 15 -13 15
-13 -4 -4 -12 6 -24 7 -28 3 -4 -3 -4 1 0 11 3 9 11 17 17 17 6 0 7 -3 4 -7z
m1595 -55 c-6 -6 -12 -6 -17 3 -6 8 -4 10 5 4 9 -5 10 -1 6 16 -6 21 -6 22 5
6 7 -13 8 -22 1 -29z m-1632 22 c0 -5 -4 -10 -10 -10 -5 0 -10 5 -10 10 0 6 5
10 10 10 6 0 10 -4 10 -10z m-276 -6 c19 -7 22 -44 4 -44 -9 0 -10 -3 -2 -8 6
-4 14 -21 17 -39 5 -25 3 -31 -8 -27 -7 3 -11 13 -8 22 4 15 3 15 -6 2 -6 -8
-16 -15 -23 -15 -19 0 -18 -44 1 -55 13 -7 17 -4 18 13 0 12 -1 16 -4 10 -7
-19 -19 -16 -20 6 -1 14 4 19 18 16 33 -6 41 -16 35 -41 -4 -16 -2 -24 6 -25
10 0 10 -2 1 -6 -15 -5 -18 -33 -4 -33 4 0 8 -12 9 -27 0 -16 1 -30 2 -33 6
-16 6 -78 -1 -74 -5 2 -5 12 -2 21 4 10 2 14 -5 9 -10 -6 -62 41 -62 57 0 4
-4 6 -9 3 -5 -3 -12 1 -15 10 -4 10 -2 13 6 8 7 -4 8 -3 4 4 -4 6 -12 9 -19 6
-7 -2 -19 6 -25 18 -7 13 -26 31 -43 40 -18 11 -27 22 -23 29 4 7 3 9 -4 5 -6
-3 -16 0 -24 7 -7 7 -21 16 -30 20 -10 3 -18 11 -18 17 0 6 4 9 8 6 12 -7 82
15 77 24 -3 4 10 10 28 13 17 3 41 9 51 13 16 6 18 4 13 -10 -4 -11 -3 -15 4
-11 6 4 8 13 5 21 -3 7 4 18 14 24 12 6 20 7 20 1 0 -5 -6 -12 -12 -14 -10 -4
-10 -6 -1 -6 19 -1 26 18 13 34 -14 16 -10 18 14 9z m311 -4 c-3 -5 -12 -10
-18 -10 -7 0 -6 4 3 10 19 12 23 12 15 0z m16 -23 c-10 -9 -11 -8 -5 6 3 10 9
15 12 12 3 -3 0 -11 -7 -18z m1798 -33 c-6 -8 -16 -11 -23 -8 -6 3 -3 -1 6 -9
10 -8 15 -17 11 -20 -6 -6 12 -11 30 -8 11 2 9 -17 -3 -24 -6 -4 -8 -11 -5
-16 3 -5 -1 -6 -9 -3 -18 7 -21 21 -6 26 6 2 1 9 -10 16 -11 7 -19 9 -18 5 2
-5 -1 -9 -7 -9 -5 -1 -8 3 -6 10 2 6 5 29 7 51 1 22 3 42 3 45 1 3 11 -6 21
-19 16 -18 18 -27 9 -37z m-1853 34 c4 -7 4 -10 -1 -6 -4 4 -14 3 -22 -3 -8
-8 -13 -8 -13 -1 0 6 6 13 13 15 6 3 13 6 14 6 1 1 5 -5 9 -11z m1664 -18 c0
-5 -10 -14 -22 -20 -21 -10 -21 -10 -5 3 19 16 24 32 5 21 -7 -4 -8 -3 -4 5 8
12 26 6 26 -9z m224 4 c4 -10 1 -14 -6 -12 -15 5 -23 28 -10 28 5 0 13 -7 16
-16z m-1879 -33 c-6 -5 -25 10 -25 20 0 5 6 4 14 -3 8 -7 12 -15 11 -17z m26
12 c13 -17 13 -17 -6 -3 -11 8 -22 16 -24 17 -2 2 0 3 6 3 6 0 17 -8 24 -17z
m65 5 c3 -4 -1 -5 -10 -4 -8 1 -18 5 -22 8 -3 4 1 5 10 4 8 -1 18 -5 22 -8z
m144 2 c0 -5 -5 -10 -11 -10 -5 0 -7 5 -4 10 3 6 8 10 11 10 2 0 4 -4 4 -10z
m-147 -33 c4 3 7 4 7 0 0 -17 -20 -14 -36 6 -19 22 -19 22 2 4 11 -9 24 -14
27 -10z m1587 13 c0 -5 -4 -10 -10 -10 -5 0 -10 5 -10 10 0 6 5 10 10 10 6 0
10 -4 10 -10z m-1684 -39 c0 -16 -4 -27 -7 -25 -4 2 -6 12 -4 22 2 9 4 20 4
25 1 4 3 7 5 7 2 0 3 -13 2 -29z m55 12 c13 -16 12 -17 -3 -4 -10 7 -18 15
-18 17 0 8 8 3 21 -13z m1589 -3 c-12 -23 -16 -24 -26 -8 -4 6 -3 8 3 5 6 -4
13 0 17 8 3 8 8 15 11 15 3 0 1 -9 -5 -20z m70 16 c0 -3 -4 -8 -10 -11 -5 -3
-10 -1 -10 4 0 6 5 11 10 11 6 0 10 -2 10 -4z m-1670 -50 c-7 -7 -13 -7 -20 0
-6 6 -3 10 10 10 13 0 16 -4 10 -10z m1624 2 c-3 -4 -9 -8 -15 -8 -5 0 -9 4
-9 8 0 5 7 9 15 9 8 0 12 -4 9 -9z m246 -13 c-7 -9 -15 -13 -17 -11 -7 7 7 26
19 26 6 0 6 -6 -2 -15z m-1815 -5 c3 -5 1 -10 -4 -10 -6 0 -11 5 -11 10 0 6 2
10 4 10 3 0 8 -4 11 -10z m59 -6 c3 -8 2 -12 -4 -9 -6 3 -10 10 -10 16 0 14 7
11 14 -7z m-59 -34 c3 -5 1 -10 -4 -10 -6 0 -11 5 -11 10 0 6 2 10 4 10 3 0 8
-4 11 -10z m-55 -14 c0 -2 -7 -7 -16 -10 -8 -3 -12 -2 -9 4 6 10 25 14 25 6z
m1633 -11 c-3 -10 0 -15 8 -13 9 2 14 -6 14 -19 0 -13 -4 -23 -10 -22 -5 0
-12 -7 -15 -17 -6 -16 -7 -16 -12 3 -5 17 -2 21 13 18 13 -3 19 2 19 15 0 13
-6 18 -19 15 -14 -3 -18 1 -14 16 3 10 9 19 14 19 5 0 6 -7 2 -15z m182 -44
c-5 -12 -3 -13 6 -4 9 9 18 6 37 -12 14 -14 23 -28 19 -32 -4 -4 -14 3 -23 15
-15 22 -35 21 -33 -1 0 -9 2 -8 6 1 2 6 9 10 14 6 5 -3 6 -11 2 -17 -4 -7 -8
-15 -8 -19 0 -20 -19 -10 -22 12 -6 44 -9 55 -16 68 -6 8 -3 10 8 6 10 -4 14
-13 10 -23z m-215 9 c0 -4 -7 -7 -15 -6 -23 3 -26 12 -5 13 11 1 20 -2 20 -7z
m90 -5 c7 -9 8 -15 2 -15 -5 0 -12 7 -16 15 -3 8 -4 15 -2 15 2 0 9 -7 16 -15z
m-109 -32 c13 -16 12 -17 -3 -4 -17 13 -22 21 -14 21 2 0 10 -8 17 -17z m85
-16 c8 3 14 1 14 -5 0 -14 -33 -8 -36 7 -1 6 0 7 2 2 3 -6 12 -7 20 -4z
m-1611 -7 c3 -5 1 -10 -4 -10 -6 0 -11 5 -11 10 0 6 2 10 4 10 3 0 8 -4 11
-10z m1556 -13 c-15 -15 -14 -30 1 -21 6 4 8 3 5 -4 -8 -12 -32 -10 -44 3 -4
4 -3 5 3 2 11 -7 29 19 25 36 -1 5 4 5 10 2 8 -5 8 -10 0 -18z m-8 -74 c-5
-12 -3 -14 7 -8 9 5 11 4 6 -3 -5 -9 -12 -8 -26 1 -20 12 -18 15 17 26 1 1 -1
-6 -4 -16z m1 -56 c-4 -11 -44 -19 -44 -10 0 3 33 18 47 22 1 1 0 -5 -3 -12z
m-59 -37 c-3 -5 -12 -10 -18 -10 -7 0 -6 4 3 10 19 12 23 12 15 0z m75 5 c0
-7 -30 -13 -34 -7 -3 4 4 9 15 9 10 1 19 0 19 -2z m-25 -45 c17 -8 16 -8 -7
-7 -16 1 -28 5 -28 9 0 10 9 9 35 -2z m-70 -20 c-3 -5 -12 -10 -18 -10 -7 0
-6 4 3 10 19 12 23 12 15 0z m29 1 c3 -5 -2 -15 -12 -22 -15 -12 -16 -12 -5 2
7 9 10 19 6 22 -3 4 -4 7 0 7 3 0 8 -4 11 -9z m-1114 -355 c0 -3 -4 -8 -10
-11 -5 -3 -10 -1 -10 4 0 6 5 11 10 11 6 0 10 -2 10 -4z m-280 -16 c8 -5 11
-10 5 -10 -5 0 -17 5 -25 10 -8 5 -10 10 -5 10 6 0 17 -5 25 -10z m95 -15 c0
-21 -2 -23 -11 -10 -6 8 -13 12 -16 9 -4 -3 -9 0 -14 7 -4 7 -3 10 2 6 7 -4
39 7 39 13 0 0 0 -11 0 -25z m106 2 c-6 -8 -8 -16 -5 -19 3 -3 1 -9 -4 -12 -6
-3 -9 0 -8 6 2 16 15 38 23 38 3 0 0 -6 -6 -13z m-161 -12 c0 5 5 4 12 -3 8
-8 8 -15 -2 -26 -7 -9 -16 -14 -20 -11 -5 3 -10 2 -13 -2 -2 -5 -2 -1 1 7 3 8
4 24 4 35 -1 16 1 17 8 5 5 -8 10 -11 10 -5z m31 -38 c-10 -9 -11 -8 -5 6 3
10 9 15 12 12 3 -3 0 -11 -7 -18z m59 13 c-8 -5 -19 -10 -25 -10 -5 0 -3 5 5
10 8 5 20 10 25 10 6 0 3 -5 -5 -10z m1039 -247 c0 -11 -3 -13 -6 -5 -2 6 -9
10 -14 6 -5 -3 -9 0 -9 5 0 6 7 11 15 11 8 0 15 -8 14 -17z m-636 -255 c-2 -5
-13 -8 -24 -8 -10 0 -19 3 -19 8 0 4 11 7 24 7 13 0 22 -3 19 -7z"/>
<path d="M2170 3366 c0 -2 7 -7 16 -10 8 -3 12 -2 9 4 -6 10 -25 14 -25 6z"/>
<path d="M2316 3271 c-4 -5 -2 -12 4 -16 16 -10 12 -28 -4 -22 -9 4 -13 1 -10
-6 2 -7 14 -13 24 -14 11 -1 18 2 15 7 -3 6 2 7 12 4 17 -5 17 -5 0 6 -9 6
-15 15 -12 19 2 5 -2 14 -9 20 -9 8 -16 8 -20 2z"/>
<path d="M2270 3200 c-9 -16 -15 -18 -30 -10 -28 15 -35 -6 -8 -24 14 -10 24
-12 26 -6 3 7 9 7 18 -1 17 -14 27 -6 31 25 4 31 -23 42 -37 16z m18 -15 c-1
-13 -6 -21 -10 -17 -5 5 -6 16 -2 25 9 24 14 21 12 -8z m-43 -13 c-3 -3 -11 0
-18 7 -9 10 -8 11 6 5 10 -3 15 -9 12 -12z"/>
<path d="M2320 3203 c0 -21 21 -26 38 -9 10 9 12 16 5 16 -7 0 -15 -5 -19 -11
-4 -8 -9 -7 -15 2 -6 10 -9 10 -9 2z"/>
<path d="M2774 3358 l-19 -23 23 19 c12 11 22 21 22 23 0 8 -8 2 -26 -19z"/>
<path d="M1816 3123 c-6 -14 -5 -15 5 -6 7 7 10 15 7 18 -3 3 -9 -2 -12 -12z"/>
<path d="M1881 3132 c-1 -8 -6 -10 -13 -6 -10 5 -10 4 -1 -6 15 -16 28 -8 20
12 -4 11 -6 11 -6 0z"/>
<path d="M1837 3097 c4 -7 0 -8 -13 -3 -15 6 -16 5 -7 -5 10 -10 16 -9 29 2
16 12 17 12 11 -4 -4 -11 -3 -16 3 -12 6 3 10 1 10 -6 0 -7 3 -10 6 -6 9 9
-12 40 -30 43 -9 1 -13 -2 -9 -9z"/>
<path d="M1897 3103 c-4 -3 -7 -11 -7 -17 0 -6 5 -5 12 2 6 6 9 14 7 17 -3 3
-9 2 -12 -2z"/>
<path d="M1835 3050 c-3 -6 1 -7 9 -4 18 7 21 14 7 14 -6 0 -13 -4 -16 -10z"/>
<path d="M1967 3024 c-3 -4 -2 -14 3 -24 7 -13 2 -23 -25 -45 -40 -31 -43 -41
-15 -48 17 -4 46 16 44 32 -1 13 25 31 31 21 3 -5 12 -10 18 -10 7 1 1 10 -13
22 -14 11 -24 25 -22 29 1 5 -3 9 -9 9 -5 0 -7 5 -4 10 7 11 2 13 -8 4z m23
-47 c0 -2 -10 -12 -22 -23 l-23 -19 19 23 c18 21 26 27 26 19z"/>
<path d="M1905 2890 c-3 -6 1 -7 9 -4 18 7 21 14 7 14 -6 0 -13 -4 -16 -10z"/>
<path d="M1861 2834 c-7 -8 -19 -13 -26 -10 -11 4 -13 -12 -5 -34 1 -3 2 -8 1
-12 -2 -15 17 -8 23 8 3 8 2 12 -4 9 -15 -9 -12 1 5 15 12 10 14 8 10 -9 -3
-14 0 -20 8 -16 7 4 4 0 -5 -8 -10 -8 -15 -17 -11 -21 4 -4 -1 -4 -12 -1 -17
6 -18 5 -3 -4 9 -6 22 -9 30 -6 17 7 21 42 6 51 -6 4 -5 10 3 15 10 6 10 9 2
9 -7 0 -10 7 -7 15 8 19 3 19 -15 -1z"/>
<path d="M1910 3006 c0 -2 8 -10 18 -17 15 -13 16 -12 3 4 -13 16 -21 21 -21
13z"/>
<path d="M3500 2977 c0 -2 6 -10 14 -16 11 -9 16 -9 22 1 4 7 4 10 -1 6 -4 -4
-14 -3 -22 3 -7 6 -13 9 -13 6z"/>
<path d="M3505 2911 c2 -9 4 -18 5 -21 1 -3 2 -8 1 -12 0 -5 3 -8 8 -8 5 0 11
3 14 8 2 4 2 1 1 -5 -2 -7 0 -12 4 -10 12 4 10 -17 -4 -38 -8 -11 -18 -19 -21
-17 -4 2 -9 -1 -11 -6 -4 -14 27 -10 32 4 6 16 36 7 33 -9 -1 -7 -9 -18 -17
-25 -13 -11 -12 -12 6 -3 12 6 25 7 29 3 5 -4 5 -2 2 5 -4 6 3 20 16 30 l24
18 -23 18 c-13 10 -23 21 -23 25 3 19 -2 23 -15 13 -11 -9 -15 -8 -21 6 -5 10
-9 22 -9 27 -1 5 -8 10 -17 12 -11 1 -16 -4 -14 -15z m22 -6 c0 -8 -4 -12 -9
-9 -5 3 -6 10 -3 15 9 13 12 11 12 -6z m50 -32 c-4 -3 2 -16 13 -28 l20 -22
-22 -19 c-18 -15 -20 -16 -9 -1 11 14 11 17 0 18 -8 1 -18 1 -23 0 -5 -1 -4 4
3 12 6 8 11 19 10 23 -2 15 1 24 8 24 3 0 3 -3 0 -7z"/>
<path d="M3492 2865 c3 -28 27 -42 43 -23 6 7 9 12 6 11 -9 -5 -41 19 -36 28
4 5 1 9 -4 9 -6 0 -10 -11 -9 -25z"/>
<path d="M3599 2678 c10 -13 10 -18 2 -18 -7 0 -10 -4 -6 -10 3 -5 -6 -17 -20
-26 l-25 -16 21 -27 c12 -14 28 -26 37 -26 12 0 16 -8 15 -23 -2 -12 2 -22 8
-22 5 0 8 -4 5 -9 -9 -13 21 -34 36 -25 9 5 9 3 -1 -10 -13 -15 -16 -15 -23
-2 -5 8 -15 13 -22 10 -8 -3 -17 -1 -21 5 -3 6 -11 11 -17 11 -6 0 -3 -9 7
-20 11 -12 25 -18 34 -15 8 3 13 3 9 0 -8 -9 34 -51 47 -47 6 2 5 -2 -2 -9
-10 -10 -9 -15 4 -24 15 -11 12 -17 -25 -55 -38 -40 -40 -45 -26 -61 10 -11
12 -19 5 -23 -6 -4 -7 -14 -4 -23 3 -9 0 -21 -8 -27 -8 -6 -15 -17 -17 -24 -2
-13 10 -16 22 -5 3 4 15 8 25 10 21 3 22 -10 3 -45 -7 -12 -9 -21 -3 -20 5 2
9 -1 9 -6 0 -5 6 -13 14 -18 10 -7 8 -8 -5 -4 -11 3 -20 0 -24 -9 -3 -10 -13
-14 -27 -10 -16 5 -18 4 -6 -4 8 -5 11 -13 7 -18 -5 -4 -12 -1 -17 7 -10 17
21 54 31 37 4 -6 9 -5 13 1 10 16 -13 25 -29 12 -11 -9 -15 -9 -15 -1 0 6 -5
11 -11 11 -6 0 -9 -7 -5 -15 3 -8 -1 -21 -9 -29 -13 -12 -12 -16 1 -27 9 -7
26 -13 39 -14 12 0 28 -5 36 -11 15 -11 25 -11 50 0 19 8 21 33 3 33 -7 0 -10
-7 -6 -16 5 -14 3 -14 -11 -2 -9 7 -14 17 -11 22 3 5 0 9 -6 9 -7 0 -10 -6 -7
-13 3 -8 -3 -13 -18 -13 -13 0 -21 4 -19 8 3 5 10 6 15 3 5 -4 9 0 9 8 0 8 9
17 20 20 14 4 18 10 13 23 -4 11 -3 15 4 11 6 -4 17 1 24 10 8 9 9 14 4 11 -6
-4 -17 3 -24 14 -11 18 -11 20 3 15 24 -9 38 24 20 48 -12 16 -16 17 -27 5
-10 -10 -9 -11 2 -5 9 5 12 4 7 -3 -3 -6 -2 -13 4 -17 5 -3 10 -11 10 -18 0
-6 -7 -2 -16 9 -8 10 -12 12 -8 4 4 -8 -4 -5 -16 7 -13 12 -24 35 -25 50 -1
15 -3 33 -5 38 -4 18 0 35 9 35 5 0 8 -12 5 -26 -3 -16 -1 -23 6 -19 17 10 33
-5 20 -20 -8 -9 -8 -15 0 -20 5 -3 10 -1 10 5 0 8 6 8 21 0 11 -7 23 -9 26 -6
8 8 -28 47 -38 41 -8 -6 -22 12 -25 32 -1 7 2 15 7 19 5 3 7 10 4 15 -4 5 -2
9 3 9 4 0 8 14 8 30 0 17 -3 30 -8 30 -4 0 -7 3 -5 8 1 4 -2 8 -7 9 -14 2 -28
32 -20 44 4 7 16 2 33 -13 14 -13 23 -19 19 -14 -4 5 -3 15 3 23 6 7 9 14 5
14 -3 1 -9 2 -14 3 -4 0 -18 11 -32 24 -13 12 -27 22 -31 22 -9 0 -5 42 5 58
4 6 13 9 21 5 8 -3 15 0 15 7 0 6 -4 9 -9 5 -16 -9 -24 15 -10 31 11 13 9 14
-15 3 -19 -9 -23 -15 -14 -21 10 -6 10 -8 -2 -8 -12 0 -12 -2 -2 -9 11 -7 11
-9 -1 -14 -10 -4 -14 0 -12 11 1 9 -7 25 -19 35 -11 10 -15 15 -7 11 9 -4 12
-3 7 4 -3 6 -1 14 5 18 7 4 9 3 6 -3 -11 -18 25 -25 42 -9 13 14 12 15 -8 11
-18 -3 -22 -1 -16 13 3 9 3 13 -1 9 -4 -4 -17 1 -28 10 -20 17 -20 17 -7 1z
m1 -78 c13 -8 13 -10 -2 -10 -9 0 -20 5 -23 10 -8 13 5 13 25 0z m10 -30 c0
-5 -2 -10 -4 -10 -3 0 -8 5 -11 10 -3 6 -1 10 4 10 6 0 11 -4 11 -10z m105
-112 c5 4 5 1 1 -6 -6 -10 -11 -10 -22 -1 -8 6 -14 14 -14 16 0 3 6 0 13 -6 8
-6 18 -7 22 -3z m-30 -137 c3 -5 2 -12 -3 -15 -5 -3 -9 1 -9 9 0 17 3 19 12 6z
m45 -86 c11 -13 10 -14 -4 -9 -9 3 -16 10 -16 15 0 13 6 11 20 -6z m-76 -53
c3 -5 -1 -9 -9 -9 -8 0 -12 4 -9 9 3 4 7 8 9 8 2 0 6 -4 9 -8z m46 -61 c7 -15
7 -19 -5 -17 -20 3 -28 13 -20 25 9 15 13 14 25 -8z m-4 -113 c3 -4 -1 -5 -10
-4 -8 1 -18 5 -22 8 -3 4 1 5 10 4 8 -1 18 -5 22 -8z"/>
<path d="M3633 2401 c0 -17 3 -30 6 -29 20 2 31 -3 26 -12 -3 -5 1 -10 9 -10
23 0 19 15 -6 28 -13 6 -17 11 -10 11 10 1 10 5 0 21 -18 28 -25 25 -25 -9z"/>
<path d="M3610 2400 c0 -5 5 -10 10 -10 6 0 10 5 10 10 0 6 -4 10 -10 10 -5 0
-10 -4 -10 -10z"/>
<path d="M3665 2240 c-3 -5 -2 -10 4 -10 5 0 13 5 16 10 3 6 2 10 -4 10 -5 0
-13 -4 -16 -10z"/>
<path d="M3666 2212 c-3 -5 1 -15 8 -21 11 -10 14 -9 12 3 -3 21 -13 29 -20
18z"/>
<path d="M3635 2120 c-3 -5 -1 -10 4 -10 6 0 11 5 11 10 0 6 -2 10 -4 10 -3 0
-8 -4 -11 -10z"/>
<path d="M1850 2921 c0 -6 4 -13 10 -16 6 -3 7 1 4 9 -7 18 -14 21 -14 7z"/>
<path d="M1920 2769 c0 -5 5 -7 10 -4 6 3 10 8 10 11 0 2 -4 4 -10 4 -5 0 -10
-5 -10 -11z"/>
<path d="M1595 2539 c-11 -16 -1 -19 13 -3 7 8 8 14 3 14 -5 0 -13 -5 -16 -11z"/>
<path d="M1553 2515 c0 -8 4 -12 9 -9 5 3 6 10 3 15 -9 13 -12 11 -12 -6z"/>
<path d="M1540 2475 c-11 -13 -10 -14 4 -9 9 3 16 10 16 15 0 13 -6 11 -20 -6z"/>
<path d="M1495 2451 c-3 -5 -2 -12 3 -15 5 -3 9 1 9 9 0 17 -3 19 -12 6z"/>
<path d="M1562 2444 c10 -10 20 -16 22 -13 3 3 -5 11 -17 18 -21 13 -21 12 -5
-5z"/>
<path d="M1595 2420 c-4 -6 -10 -8 -14 -5 -5 2 -8 -4 -7 -15 1 -23 9 -25 34
-11 9 6 12 11 7 11 -6 0 -16 -5 -23 -12 -8 -8 -12 -8 -12 -1 0 14 25 34 33 26
4 -3 7 -1 7 5 0 15 -17 16 -25 2z"/>
<path d="M1530 2416 c0 -2 7 -9 15 -16 9 -7 15 -8 15 -2 0 5 -7 12 -15 16 -8
3 -15 4 -15 2z"/>
<path d="M1602 2368 c-7 -7 -12 -17 -12 -22 0 -6 5 -3 11 7 12 21 26 22 32 2
4 -12 5 -11 3 1 -1 22 -18 28 -34 12z"/>
<path d="M1610 2340 c0 -5 0 -13 0 -17 0 -5 9 -9 20 -9 11 -1 17 2 14 7 -2 4
-11 6 -19 2 -11 -4 -13 -1 -9 11 3 9 3 16 0 16 -3 0 -6 -4 -6 -10z"/>
<path d="M3716 2571 c-4 -5 -2 -12 3 -15 5 -4 12 -2 15 3 4 5 2 12 -3 15 -5 4
-12 2 -15 -3z"/>
<path d="M2127 1653 c-4 -3 -7 -11 -7 -17 0 -6 5 -5 12 2 6 6 9 14 7 17 -3 3
-9 2 -12 -2z"/>
<path d="M2685 3540 c-3 -6 1 -7 9 -4 18 7 21 14 7 14 -6 0 -13 -4 -16 -10z"/>
<path d="M2616 3527 c3 -10 9 -15 12 -12 3 3 0 11 -7 18 -10 9 -11 8 -5 -6z"/>
<path d="M2715 3529 c-4 -6 -5 -12 -2 -15 2 -3 7 2 10 11 7 17 1 20 -8 4z"/>
<path d="M2753 3485 c0 -30 6 -28 12 4 2 11 0 21 -4 21 -5 0 -8 -11 -8 -25z"/>
<path d="M2620 3494 c0 -5 7 -18 15 -28 8 -11 15 -16 15 -10 0 5 -7 18 -15 28
-8 11 -15 16 -15 10z"/>
<path d="M2556 3478 c3 -4 11 -5 19 -1 21 7 19 12 -4 10 -11 0 -18 -5 -15 -9z"/>
<path d="M2535 3459 c-4 -6 -4 -13 -1 -16 3 -4 6 -1 6 6 0 7 5 9 12 5 7 -4 8
-3 4 4 -9 15 -13 15 -21 1z"/>
<path d="M2573 3457 c-3 -6 -1 -7 5 -3 7 4 12 1 12 -8 0 -22 15 -20 17 2 2 20
-23 26 -34 9z"/>
<path d="M2620 3445 c0 -8 4 -15 10 -15 5 0 7 7 4 15 -4 8 -8 15 -10 15 -2 0
-4 -7 -4 -15z"/>
<path d="M2656 3435 c-3 -8 -1 -15 3 -15 5 0 11 7 15 15 3 8 1 15 -3 15 -5 0
-11 -7 -15 -15z"/>
<path d="M2610 3409 c0 -5 5 -7 10 -4 6 3 10 8 10 11 0 2 -4 4 -10 4 -5 0 -10
-5 -10 -11z"/>
<path d="M2662 3314 c13 -15 15 -23 7 -31 -8 -8 -7 -13 1 -18 6 -4 17 -2 23 4
8 8 16 6 28 -5 17 -15 18 -15 16 5 -1 12 -5 21 -10 21 -4 0 -5 5 -2 10 3 6 1
10 -5 10 -7 0 -10 -7 -7 -14 4 -10 1 -13 -8 -10 -8 3 -13 11 -12 17 1 6 -2 11
-8 12 -5 0 -17 4 -25 9 -11 7 -10 4 2 -10z"/>
<path d="M2749 3306 c0 -1 -2 -8 -4 -18 -2 -12 4 -16 24 -14 28 2 51 13 51 24
0 5 -66 12 -71 8z m45 -14 c3 -5 -1 -9 -9 -9 -8 0 -12 4 -9 9 3 4 7 8 9 8 2 0
6 -4 9 -8z"/>
<path d="M1584 2882 c4 -3 14 -7 22 -8 9 -1 13 0 10 4 -4 3 -14 7 -22 8 -9 1
-13 0 -10 -4z"/>
<path d="M3666 2855 c-11 -8 -18 -17 -15 -19 2 -2 15 4 28 15 27 22 15 26 -13
4z"/>
<path d="M3875 2860 c-3 -5 -1 -10 4 -10 6 0 11 5 11 10 0 6 -2 10 -4 10 -3 0
-8 -4 -11 -10z"/>
<path d="M1554 2846 c1 -8 5 -18 8 -22 4 -3 5 1 4 10 -1 8 -5 18 -8 22 -4 3
-5 -1 -4 -10z"/>
<path d="M3850 2801 c0 -6 4 -13 10 -16 6 -3 7 1 4 9 -7 18 -14 21 -14 7z"/>
<path d="M3906 2802 c-2 -4 4 -8 14 -8 10 0 16 4 14 8 -3 4 -9 8 -14 8 -5 0
-11 -4 -14 -8z"/>
<path d="M3770 2771 c0 -7 -4 -9 -10 -6 -5 3 -10 1 -10 -4 0 -6 4 -11 9 -11
13 0 25 20 17 27 -3 4 -6 1 -6 -6z"/>
<path d="M1495 2740 c-3 -5 -1 -10 4 -10 6 0 11 5 11 10 0 6 -2 10 -4 10 -3 0
-8 -4 -11 -10z"/>
<path d="M3731 2745 c0 -5 6 -18 14 -29 11 -14 12 -24 4 -38 -6 -11 -8 -22 -5
-26 3 -3 6 -1 6 4 0 6 7 19 15 30 15 19 16 19 13 -1 -2 -11 -7 -24 -13 -28 -6
-5 -4 -7 5 -4 18 4 21 53 3 50 -7 -2 -13 1 -13 5 0 5 -7 17 -15 28 -8 10 -14
15 -14 9z"/>
<path d="M3775 2739 c-4 -6 -5 -12 -2 -15 2 -3 7 2 10 11 7 17 1 20 -8 4z"/>
<path d="M3806 2685 c-9 -26 -7 -32 5 -12 6 10 9 21 6 23 -2 3 -7 -2 -11 -11z"/>
<path d="M3879 2675 c-1 -3 -2 -13 -3 -22 -1 -10 -5 -25 -10 -33 -7 -12 -6
-13 5 -2 11 11 22 62 12 62 -1 0 -4 -2 -4 -5z"/>
<path d="M3913 2665 c0 -8 4 -12 9 -9 5 3 6 10 3 15 -9 13 -12 11 -12 -6z"/>
<path d="M3810 2640 c0 -5 5 -10 10 -10 6 0 10 5 10 10 0 6 -4 10 -10 10 -5 0
-10 -4 -10 -10z"/>
<path d="M3973 2631 c0 -11 5 -18 9 -15 4 3 5 11 1 19 -7 21 -12 19 -10 -4z"/>
<path d="M3797 2607 c-3 -8 -2 -20 3 -26 5 -9 8 -4 8 13 0 29 -3 32 -11 13z"/>
<path d="M3833 2613 c4 -6 1 -13 -5 -16 -7 -2 0 -4 15 -4 15 0 27 0 25 1 -2 1
-12 8 -22 16 -11 8 -17 10 -13 3z"/>
<path d="M3913 2575 c0 -8 4 -12 9 -9 5 3 6 10 3 15 -9 13 -12 11 -12 -6z"/>
<path d="M3828 2563 c16 -6 16 -24 0 -20 -7 1 -13 -8 -14 -21 -2 -27 31 -50
39 -28 4 9 0 12 -12 9 -11 -3 -17 2 -18 16 -1 14 3 19 18 16 16 -3 17 -1 9 16
-6 10 -16 19 -23 18 -9 0 -9 -2 1 -6z"/>
<path d="M3981 2556 c-9 -11 -9 -16 1 -22 7 -4 10 -4 6 1 -4 4 -3 14 3 22 6 7
9 13 6 13 -2 0 -10 -6 -16 -14z"/>
<path d="M3880 2535 c-7 -9 -11 -17 -9 -20 3 -2 10 5 17 15 14 24 10 26 -8 5z"/>
<path d="M3913 2515 c0 -8 4 -12 9 -9 5 3 6 10 3 15 -9 13 -12 11 -12 -6z"/>
<path d="M3867 2479 c7 -7 15 -10 18 -7 3 3 -2 9 -12 12 -14 6 -15 5 -6 -5z"/>
<path d="M3910 2482 c0 -5 7 -9 15 -9 8 0 12 4 9 9 -3 4 -9 8 -15 8 -5 0 -9
-4 -9 -8z"/>
<path d="M3830 2450 c0 -6 7 -10 15 -10 8 0 15 2 15 4 0 2 -7 6 -15 10 -8 3
-15 1 -15 -4z"/>
<path d="M3890 2456 c0 -2 8 -10 18 -17 15 -13 16 -12 3 4 -13 16 -21 21 -21
13z"/>
<path d="M3937 2453 c-10 -9 -9 -23 1 -23 5 0 9 7 9 15 0 17 -1 18 -10 8z"/>
<path d="M3876 2431 c-3 -5 1 -11 9 -14 9 -4 12 -1 8 9 -6 16 -10 17 -17 5z"/>
<path d="M3913 2405 c0 -8 4 -12 9 -9 5 3 6 10 3 15 -9 13 -12 11 -12 -6z"/>
<path d="M3959 2418 c-5 -18 -6 -38 -1 -34 7 8 12 36 6 36 -2 0 -4 -1 -5 -2z"/>
<path d="M3840 2400 c-8 -5 -12 -11 -10 -14 3 -2 14 2 24 10 22 15 10 19 -14
4z"/>
<path d="M3987 2399 c7 -7 15 -10 18 -7 3 3 -2 9 -12 12 -14 6 -15 5 -6 -5z"/>
<path d="M4030 2406 c0 -2 7 -7 16 -10 8 -3 12 -2 9 4 -6 10 -25 14 -25 6z"/>
<path d="M3854 2378 c-4 -6 -3 -8 4 -4 5 3 12 1 14 -6 3 -8 6 -9 11 -1 4 6 0
13 -8 17 -8 3 -17 0 -21 -6z"/>
<path d="M3955 2361 c-3 -5 -2 -12 3 -15 5 -3 9 1 9 9 0 17 -3 19 -12 6z"/>
<path d="M3874 2335 c3 -23 12 -26 13 -5 1 11 -2 20 -7 20 -4 0 -7 -7 -6 -15z"/>
<path d="M3835 2310 c-3 -5 -1 -10 4 -10 6 0 11 5 11 10 0 6 -2 10 -4 10 -3 0
-8 -4 -11 -10z"/>
<path d="M3891 2291 c-8 -5 -21 -7 -30 -3 -9 3 -13 2 -9 -2 3 -4 12 -8 20 -10
7 -1 18 -4 23 -8 6 -4 11 2 11 13 0 10 0 19 -1 19 0 0 -6 -4 -14 -9z"/>
<path d="M3785 2270 c-3 -5 -2 -18 4 -28 6 -11 6 -24 -1 -36 -7 -13 -7 -21 2
-29 8 -9 9 -7 4 7 -5 13 -4 17 4 12 6 -3 13 -2 16 3 3 5 15 7 25 4 22 -6 37
12 20 23 -8 4 -9 3 -5 -4 9 -16 -9 -15 -34 0 -18 11 -18 14 -3 30 10 11 12 18
5 18 -7 0 -12 -4 -12 -10 0 -5 -5 -10 -11 -10 -6 0 -9 7 -5 15 6 17 0 20 -9 5z
m35 -54 c0 -3 -4 -8 -10 -11 -5 -3 -10 -1 -10 4 0 6 5 11 10 11 6 0 10 -2 10
-4z"/>
<path d="M1410 2260 c0 -5 5 -10 11 -10 5 0 7 5 4 10 -3 6 -8 10 -11 10 -2 0
-4 -4 -4 -10z"/>
<path d="M3840 2255 c-7 -9 -10 -18 -7 -22 4 -3 9 2 13 11 3 9 11 13 17 9 6
-3 7 -1 3 5 -9 15 -11 15 -26 -3z"/>
<path d="M3894 2238 c-4 -7 -4 -10 1 -6 4 4 15 2 24 -5 14 -11 14 -10 2 6 -16
20 -18 21 -27 5z"/>
<path d="M1415 2231 c-3 -5 -2 -12 3 -15 5 -3 9 1 9 9 0 17 -3 19 -12 6z"/>
<path d="M1507 2219 c7 -7 15 -10 18 -7 3 3 -2 9 -12 12 -14 6 -15 5 -6 -5z"/>
<path d="M3946 2221 c-3 -4 4 -7 14 -6 27 2 33 10 10 12 -11 1 -22 -2 -24 -6z"/>
<path d="M3897 2209 c7 -7 15 -10 18 -7 3 3 -2 9 -12 12 -14 6 -15 5 -6 -5z"/>
<path d="M1476 2193 c-6 -14 -5 -15 5 -6 7 7 10 15 7 18 -3 3 -9 -2 -12 -12z"/>
<path d="M3876 2191 c-3 -5 1 -11 9 -14 9 -4 12 -1 8 9 -6 16 -10 17 -17 5z"/>
<path d="M1414 2176 c1 -8 5 -18 8 -22 4 -3 5 1 4 10 -1 8 -5 18 -8 22 -4 3
-5 -1 -4 -10z"/>
<path d="M3816 2182 c-9 -15 0 -46 15 -50 8 -2 10 0 4 5 -5 4 -11 17 -13 28
-3 20 -2 20 13 1 8 -11 15 -15 15 -9 0 15 -27 36 -34 25z"/>
<path d="M3970 2180 c0 -5 5 -10 11 -10 5 0 7 5 4 10 -3 6 -8 10 -11 10 -2 0
-4 -4 -4 -10z"/>
<path d="M1553 2165 c0 -8 4 -12 9 -9 5 3 6 10 3 15 -9 13 -12 11 -12 -6z"/>
<path d="M1345 2160 c-3 -6 1 -7 9 -4 18 7 21 14 7 14 -6 0 -13 -4 -16 -10z"/>
<path d="M1484 2163 c4 -4 16 -8 28 -10 28 -4 18 6 -12 12 -12 2 -20 1 -16 -2z"/>
<path d="M1455 2140 c-3 -5 -1 -10 4 -10 6 0 11 5 11 10 0 6 -2 10 -4 10 -3 0
-8 -4 -11 -10z"/>
<path d="M3853 2136 c-4 -5 -1 -6 7 -1 10 6 12 4 6 -10 -7 -18 -6 -18 14 0 11
10 20 19 20 19 0 7 -43 -1 -47 -8z"/>
<path d="M3899 2113 c-13 -17 -13 -17 6 -3 11 8 22 16 24 17 2 2 0 3 -6 3 -6
0 -17 -8 -24 -17z"/>
<path d="M1550 2110 c-9 -6 -10 -10 -3 -10 6 0 15 5 18 10 8 12 4 12 -15 0z"/>
<path d="M1596 2095 c-9 -26 -7 -32 5 -12 6 10 9 21 6 23 -2 3 -7 -2 -11 -11z"/>
<path d="M3805 2100 c3 -5 11 -10 16 -10 6 0 7 5 4 10 -3 6 -11 10 -16 10 -6
0 -7 -4 -4 -10z"/>
<path d="M1519 2088 c-7 -23 -4 -35 7 -35 9 0 11 4 4 12 -5 7 -7 15 -3 18 3 4
3 7 0 7 -4 0 -7 -1 -8 -2z"/>
<path d="M3770 2080 c-8 -5 -10 -10 -5 -10 6 0 17 5 25 10 8 5 11 10 5 10 -5
0 -17 -5 -25 -10z"/>
<path d="M3910 2081 c0 -6 4 -13 10 -16 6 -3 7 1 4 9 -7 18 -14 21 -14 7z"/>
<path d="M3811 2073 c-1 -17 16 -25 25 -12 4 7 3 9 -4 5 -5 -3 -13 0 -15 6 -4
9 -6 10 -6 1z"/>
<path d="M1450 2059 c0 -5 5 -7 10 -4 6 3 10 8 10 11 0 2 -4 4 -10 4 -5 0 -10
-5 -10 -11z"/>
<path d="M3785 2060 c-3 -5 -2 -17 3 -26 8 -15 10 -15 15 0 5 12 3 15 -5 10
-8 -5 -9 -2 -5 9 7 19 2 23 -8 7z"/>
<path d="M1580 2051 c0 -10 19 -25 25 -20 1 2 -3 10 -11 17 -8 7 -14 8 -14 3z"/>
<path d="M3916 2038 c3 -5 10 -6 15 -3 13 9 11 12 -6 12 -8 0 -12 -4 -9 -9z"/>
<path d="M3835 2031 c6 -11 4 -13 -8 -8 -23 9 -21 0 2 -13 15 -7 19 -7 17 5
-1 8 -6 18 -11 22 -4 5 -5 2 0 -6z"/>
<path d="M1506 2022 c-3 -5 1 -9 9 -9 8 0 12 4 9 9 -3 4 -7 8 -9 8 -2 0 -6 -4
-9 -8z"/>
<path d="M3774 2001 c4 -5 1 -11 -6 -13 -8 -3 -7 -6 3 -10 10 -4 15 1 16 13 1
10 -3 19 -8 19 -6 0 -8 -4 -5 -9z"/>
<path d="M3896 1993 c-6 -14 -5 -15 5 -6 7 7 10 15 7 18 -3 3 -9 -2 -12 -12z"/>
<path d="M3820 1985 c0 -7 30 -13 34 -7 3 4 -4 9 -15 9 -10 1 -19 0 -19 -2z"/>
<path d="M3926 1978 c3 -5 10 -6 15 -3 13 9 11 12 -6 12 -8 0 -12 -4 -9 -9z"/>
<path d="M1922 1659 c-8 -12 -9 -18 -4 -15 5 3 15 0 21 -7 8 -11 5 -14 -19
-14 -16 0 -27 4 -25 8 6 9 -5 39 -14 39 -17 0 -8 -41 12 -55 19 -13 20 -17 7
-25 -12 -7 -10 -9 7 -7 12 0 21 5 20 10 -1 5 4 12 12 15 8 2 11 0 7 -6 -10
-16 21 -8 42 11 18 16 20 16 26 2 4 -12 10 -13 25 -6 10 6 21 7 25 4 3 -3 6
-1 6 5 0 19 -43 58 -48 43 -3 -9 -9 -8 -22 4 -15 14 -18 14 -30 0 -11 -14 -14
-14 -24 0 -10 13 -13 13 -24 -6z m111 -14 c9 2 17 0 17 -5 0 -13 -29 -20 -36
-9 -4 6 -16 2 -30 -12 -13 -12 -24 -19 -24 -16 0 18 -3 23 -18 42 -15 17 -15
18 -1 7 13 -10 19 -9 29 3 11 13 15 14 29 1 9 -7 24 -12 34 -11z"/>
<path d="M1973 1648 c-16 -27 -12 -40 8 -23 10 10 16 22 13 26 -7 12 -11 11
-21 -3z"/>
<path d="M1838 1649 c-10 -10 -13 -19 -7 -19 13 0 34 -20 42 -40 4 -12 6 -12
6 1 1 9 -6 22 -14 29 -9 7 -13 21 -10 31 8 23 5 23 -17 -2z"/>
<path d="M1793 1635 c0 -14 3 -25 8 -25 4 0 6 10 4 21 -6 32 -12 34 -12 4z"/>
<path d="M1653 1625 c0 -8 4 -12 9 -9 5 3 6 10 3 15 -9 13 -12 11 -12 -6z"/>
<path d="M1720 1615 c-7 -9 -11 -17 -9 -20 3 -2 10 5 17 15 14 24 10 26 -8 5z"/>
<path d="M1754 1603 c3 -4 0 -13 -6 -22 -10 -12 -7 -12 8 2 11 9 23 16 25 15
2 -2 3 -1 1 1 -1 3 -10 6 -18 7 -9 1 -13 0 -10 -3z"/>
<path d="M1837 1590 c10 -11 19 -20 21 -20 1 0 -2 9 -8 20 -6 11 -15 20 -20
20 -6 0 -2 -9 7 -20z"/>
<path d="M1815 1581 c-6 -11 13 -26 22 -17 4 3 1 6 -6 6 -7 0 -9 5 -6 10 3 6
4 10 1 10 -3 0 -7 -4 -11 -9z"/>
<path d="M1715 1571 c-3 -5 -2 -12 3 -15 5 -3 9 1 9 9 0 17 -3 19 -12 6z"/>
<path d="M1780 1571 c0 -6 4 -13 10 -16 6 -3 7 1 4 9 -7 18 -14 21 -14 7z"/>
<path d="M3465 1400 c-3 -6 1 -7 9 -4 18 7 21 14 7 14 -6 0 -13 -4 -16 -10z"/>
<path d="M3355 1380 c-3 -6 1 -7 9 -4 18 7 21 14 7 14 -6 0 -13 -4 -16 -10z"/>
<path d="M3474 1368 l-19 -23 23 19 c12 11 22 21 22 23 0 8 -8 2 -26 -19z"/>
<path d="M3560 1380 c-8 -5 -10 -10 -5 -10 6 0 17 5 25 10 8 5 11 10 5 10 -5
0 -17 -5 -25 -10z"/>
<path d="M3430 1359 c0 -5 5 -7 10 -4 6 3 10 8 10 11 0 2 -4 4 -10 4 -5 0 -10
-5 -10 -11z"/>
<path d="M2386 1118 c3 -5 10 -6 15 -3 13 9 11 12 -6 12 -8 0 -12 -4 -9 -9z"/>
<path d="M2446 1118 c3 -5 10 -6 15 -3 13 9 11 12 -6 12 -8 0 -12 -4 -9 -9z"/>
<path d="M2270 1099 c0 -5 5 -7 10 -4 6 3 10 8 10 11 0 2 -4 4 -10 4 -5 0 -10
-5 -10 -11z"/>
</g>
</svg>
